# Blender 4.2.2 LTS
# www.blender.org
mtllib test4.mtl
o 42
v 0.232406 -1.216630 1.133818
v 0.232406 -0.745504 2.843098
v -0.227475 -0.745504 2.843098
v -0.227475 -1.216630 1.133818
v 0.232407 1.119982 1.133819
v 0.232406 1.119982 1.602814
v -0.227475 1.119982 1.602813
v -0.227475 1.119982 1.133818
v 0.232406 -0.340316 2.843098
v -0.227475 -0.340316 2.843098
v 0.232407 -0.305193 1.133819
v 0.232407 -0.294496 2.297937
v -0.227475 -0.305193 1.133818
v -0.227475 -0.294496 2.297937
v 0.232406 -1.222569 1.497195
v 0.232406 -0.745504 1.477731
v -0.227475 -0.745504 1.477731
v -0.227475 -1.222569 1.497194
v -0.227403 -0.731178 0.901477
v -0.227403 -0.731178 -0.037620
v 0.223704 -0.731178 -0.037620
v 0.223704 -0.731178 0.901477
v -0.227403 1.119377 0.901477
v -0.227403 1.119377 -0.037620
v 0.223704 1.119377 -0.037620
v 0.223704 1.119377 0.901477
v -0.227403 -0.129772 0.901477
v -0.227403 0.551492 0.384487
v -0.227403 1.104268 0.408501
v -0.227403 0.507336 0.901477
v 0.223704 0.507336 0.901477
v 0.223704 1.104269 0.408501
v 0.223704 0.551492 0.384487
v 0.223704 -0.129772 0.901477
v -0.227403 0.634134 -0.037620
v -0.227403 -0.066768 0.398575
v -0.227403 -0.684649 0.389681
v -0.227403 -0.075523 -0.037620
v 0.223704 0.634134 -0.037620
v 0.223704 -0.066768 0.398575
v 0.223704 -0.684649 0.389681
v 0.223704 -0.075523 -0.037620
vn -0.0000 -1.0000 -0.0000
vn -0.0000 1.0000 -0.0000
vn -1.0000 -0.0000 -0.0000
vn -0.0000 0.6474 0.7622
vn -0.0000 -0.0000 -1.0000
vn -0.0000 -0.0000 1.0000
vn -0.0000 -0.6355 -0.7721
vn -0.0000 1.0000 -0.0092
vn -0.0000 -0.9999 -0.0163
vn -0.0000 0.0408 0.9992
vn 1.0000 -0.0000 -0.0000
vn -0.0000 -0.6368 -0.7711
vn -0.0000 -0.0434 0.9991
vn -0.0000 0.6045 0.7966
vn -0.0000 -0.5284 -0.8490
vn -0.0000 0.0144 -0.9999
vn -0.0000 0.5743 0.8187
vt 0.000000 0.000000
vt 0.873262 0.620581
vt 0.744059 0.620581
vt 0.744059 0.538074
vt 0.873262 0.538074
vt 0.545099 0.727515
vt 0.480220 0.519911
vt 0.624278 0.613799
vt 0.873262 0.000000
vt 0.744059 0.000000
vt 0.167170 0.404727
vt 0.516059 0.397538
vt 0.411887 0.221375
vt 0.125216 0.391901
vt 0.006505 0.369520
vt 0.005788 0.233194
vt 0.131145 0.236554
vt 1.000000 0.131739
vt 0.873262 0.131739
vt 0.873262 -0.000000
vt 1.000000 -0.000000
vt 0.870797 0.754650
vt 0.870797 0.919857
vt 0.744059 0.919857
vt 0.744059 0.754650
vt 0.744059 0.620581
vt 0.870797 0.620581
vt -0.000000 0.658137
vt 0.126738 0.658137
vt 0.126738 0.875642
vt 0.000000 0.875642
vt 1.000000 0.488784
vt 0.873262 0.488784
vt 0.873262 0.371921
vt 1.000000 0.371921
vt 0.269621 0.231331
vt 0.270526 0.403280
vt 0.738153 0.243141
vt 0.867737 0.486965
vt 0.866110 0.223375
vt 0.008525 0.753096
vt 0.007555 0.568894
vt 0.128504 0.739176
vt 0.423426 0.352763
vt 0.752569 0.747842
vt 0.620808 0.748772
vt 0.272358 0.751233
vt 0.519595 0.970496
vt 0.379026 0.971659
vt 0.742777 0.740089
vt 0.737021 0.491567
vt 0.586132 0.467486
vt 0.003659 0.387659
vt 0.002653 0.224763
vt 0.130088 0.565569
vt 0.271469 0.582272
vt 0.750461 0.347448
vt 0.653190 0.224427
vt 0.647016 0.090438
vt 0.749113 0.091385
vt 0.269599 0.227136
vt 0.270198 0.340971
vt 0.404870 0.029631
vt 0.513797 0.031117
vt 0.869498 0.772266
vt 0.584640 0.225705
vt 0.480220 0.834837
vt 0.870702 0.967346
vt 0.736951 0.962379
s 0
usemtl Material.001
f 16/1/1 2/1/1 3/1/1 17/1/1
f 5/2/2 8/3/2 7/4/2 6/5/2
f 29/6/3 30/7/3 23/8/3
f 9/9/4 6/5/4 7/4/4 10/10/4
f 14/11/3 13/12/3 17/13/3
f 11/1/5 1/1/5 4/1/5 13/1/5
f 2/1/6 9/1/6 10/1/6 3/1/6
f 5/1/7 12/1/7 14/1/7 8/1/7
f 12/1/8 11/1/8 13/1/8 14/1/8
f 1/1/9 15/1/9 18/1/9 4/1/9
f 15/1/10 16/1/10 17/1/10 18/1/10
f 38/1/5 42/1/5 21/1/5 20/1/5
f 33/14/11 39/15/11 25/16/11 32/17/11
f 34/18/6 27/19/6 19/20/6 22/21/6
f 19/1/1 20/1/1 21/1/1 22/1/1
f 26/22/2 25/23/2 24/24/2 23/25/2
f 26/22/6 23/25/6 30/26/6 31/27/6
f 31/28/12 30/29/12 29/30/12 32/31/12
f 32/32/13 29/33/13 28/34/13 33/35/13
f 33/35/14 28/34/14 27/19/14 34/18/14
f 24/1/5 25/1/5 39/1/5 35/1/5
f 35/1/15 39/1/15 40/1/15 36/1/15
f 36/1/16 40/1/16 41/1/16 37/1/16
f 37/1/17 41/1/17 42/1/17 38/1/17
f 26/36/11 31/37/11 32/17/11
f 37/38/3 38/39/3 20/40/3
f 21/41/11 42/42/11 41/43/11
f 12/44/11 5/45/11 6/46/11
f 25/16/11 26/36/11 32/17/11
f 22/47/11 21/41/11 41/43/11
f 8/48/3 14/11/3 7/49/3
f 28/50/3 36/51/3 27/52/3
f 10/53/3 14/11/3 17/13/3 3/54/3
f 33/14/11 40/55/11 39/15/11
f 40/55/11 33/14/11 34/56/11
f 11/57/11 16/58/11 15/59/11 1/60/11
f 14/11/3 10/53/3 7/49/3
f 2/61/11 16/58/11 12/44/11 9/62/11
f 11/57/11 12/44/11 16/58/11
f 40/55/11 34/56/11 22/47/11 41/43/11
f 12/44/11 6/46/11 9/62/11
f 18/63/3 17/13/3 13/12/3 4/64/3
f 36/51/3 28/50/3 35/65/3
f 37/38/3 20/40/3 19/66/3
f 29/6/3 23/8/3 24/67/3
f 19/66/3 27/52/3 36/51/3 37/38/3
f 24/68/3 35/65/3 28/50/3 29/69/3
